<svg width="339" height="337" xmlns="http://www.w3.org/2000/svg" xmlns:xlink="http://www.w3.org/1999/xlink" xml:space="preserve" overflow="hidden"><g transform="translate(-1962 -619)"><g><g><g><path d="M2214.09 720.791C2208.46 672.708 2164.92 638.291 2116.84 643.918 2072.78 649.074 2039.52 686.326 2039.37 730.681L2080.62 730.681C2080.62 705.061 2101.39 684.291 2127.01 684.29 2152.63 684.289 2173.4 705.057 2173.4 730.677 2173.4 746.651 2165.18 761.502 2151.65 769.985 2123.71 787.076 2106.59 817.385 2106.38 850.131L2147.62 850.131C2147.89 831.579 2157.71 814.477 2173.61 804.904 2202.22 787.044 2217.98 754.296 2214.09 720.791Z"/><path d="M2145.49 881.88 2145.49 881.88C2135.66 872.029 2119.71 872.013 2109.86 881.842 2109.84 881.855 2109.83 881.867 2109.82 881.88 2107.51 884.193 2105.68 886.932 2104.42 889.944 2103.1 893.055 2102.43 896.401 2102.45 899.779 2102.43 903.143 2103.1 906.475 2104.42 909.569 2106.99 915.615 2111.82 920.42 2117.88 922.958 2120.99 924.272 2124.34 924.946 2127.72 924.938 2131.08 924.954 2134.41 924.282 2137.51 922.961 2143.52 920.391 2148.32 915.597 2150.88 909.579 2152.21 906.485 2152.88 903.153 2152.86 899.789 2152.88 896.411 2152.21 893.066 2150.89 889.954 2149.63 886.939 2147.79 884.197 2145.49 881.88Z"/></g></g></g><g><g><g><path d="M2223.09 727.791C2217.46 679.708 2173.92 645.291 2125.84 650.918 2081.78 656.074 2048.52 693.326 2048.37 737.681L2089.62 737.681C2089.62 712.061 2110.39 691.291 2136.01 691.29 2161.63 691.289 2182.4 712.057 2182.4 737.677 2182.4 753.651 2174.18 768.502 2160.65 776.985 2132.71 794.076 2115.59 824.385 2115.38 857.131L2156.62 857.131C2156.89 838.578 2166.71 821.477 2182.61 811.903 2211.22 794.044 2226.98 761.296 2223.09 727.791Z" fill="#FFFFFF"/><path d="M2154.49 888.879 2154.49 888.879C2144.66 879.029 2128.71 879.012 2118.86 888.842 2118.84 888.855 2118.83 888.867 2118.82 888.879 2116.51 891.193 2114.68 893.932 2113.42 896.944 2112.1 900.055 2111.43 903.401 2111.45 906.778 2111.43 910.143 2112.1 913.475 2113.42 916.568 2115.99 922.615 2120.82 927.42 2126.88 929.957 2129.99 931.272 2133.34 931.946 2136.72 931.937 2140.08 931.954 2143.41 931.282 2146.51 929.961 2152.52 927.391 2157.32 922.597 2159.88 916.579 2161.21 913.485 2161.88 910.153 2161.86 906.789 2161.88 903.411 2161.21 900.066 2159.89 896.954 2158.63 893.939 2156.79 891.197 2154.49 888.879Z" fill="#FFFFFF"/></g></g></g></g></svg>