<svg width="336" height="333" xmlns="http://www.w3.org/2000/svg" xmlns:xlink="http://www.w3.org/1999/xlink" xml:space="preserve" overflow="hidden"><g transform="translate(-776 -964)"><g><g><g><path d="M1023.5 1083.62 1023.5 1025.87 996 1025.87 996 1057.5 941 1005.25 941 1005.25 796.625 1142.75 812.094 1155.81 941 1033.44 941 1033.44 1069.91 1155.81 1085.37 1142.75Z"/><path d="M837.875 1150.66 837.875 1252.75 920.375 1252.75 920.375 1166.81 961.625 1166.81 961.625 1252.75 1044.12 1252.75 1044.12 1150.66 941 1052.69 837.875 1150.66ZM899.75 1208.06 858.5 1208.06 858.5 1166.81 899.75 1166.81 899.75 1208.06ZM982.25 1166.81 1023.5 1166.81 1023.5 1208.06 982.25 1208.06 982.25 1166.81Z"/></g></g></g><g><g><g><path d="M1029.5 1086.62 1029.5 1028.88 1002 1028.88 1002 1060.5 947 1008.25 947 1008.25 802.625 1145.75 818.094 1158.81 947 1036.44 947 1036.44 1075.91 1158.81 1091.38 1145.75Z" fill="#FFFFFF"/><path d="M843.875 1153.66 843.875 1255.75 926.375 1255.75 926.375 1169.81 967.625 1169.81 967.625 1255.75 1050.12 1255.75 1050.12 1153.66 947 1055.69 843.875 1153.66ZM905.75 1211.06 864.5 1211.06 864.5 1169.81 905.75 1169.81 905.75 1211.06ZM988.25 1169.81 1029.5 1169.81 1029.5 1211.06 988.25 1211.06 988.25 1169.81Z" fill="#FFFFFF"/></g></g></g></g></svg>