<svg width="335" height="336" xmlns="http://www.w3.org/2000/svg" xmlns:xlink="http://www.w3.org/1999/xlink" xml:space="preserve" overflow="hidden"><g transform="translate(-3332 -637)"><g><g><g><path d="M3586.39 918.871 3586.39 664.497 3407.64 664.497 3407.64 918.871 3366.39 918.871 3366.39 939.496 3407.64 939.496 3414.51 939.496 3428.27 939.496 3428.27 685.122 3565.77 685.122 3565.77 939.496 3579.52 939.496 3586.39 939.496 3627.64 939.496 3627.64 918.871 3586.39 918.871Z"/><path d="M3438.58 939.5 3538.27 925.75 3538.27 709.187 3438.58 695.437ZM3500.44 815.75 3515.73 815.75C3516.43 812.023 3519.52 809.214 3523.3 808.875 3527.77 808.875 3531.38 813.492 3531.38 819.187 3531.38 824.883 3527.76 829.5 3523.3 829.5 3519.53 829.161 3516.44 826.352 3515.74 822.625L3500.44 822.625Z"/></g></g></g><g><g><g><path d="M3591.39 924.872 3591.39 670.497 3412.64 670.497 3412.64 924.872 3371.39 924.872 3371.39 945.497 3412.64 945.497 3419.51 945.497 3433.27 945.497 3433.27 691.122 3570.77 691.122 3570.77 945.497 3584.52 945.497 3591.39 945.497 3632.64 945.497 3632.64 924.872 3591.39 924.872Z" fill="#FFFFFF"/><path d="M3443.58 945.5 3543.27 931.75 3543.27 715.188 3443.58 701.438ZM3505.44 821.75 3520.73 821.75C3521.43 818.023 3524.52 815.214 3528.3 814.875 3532.77 814.875 3536.38 819.492 3536.38 825.188 3536.38 830.884 3532.76 835.5 3528.3 835.5 3524.53 835.161 3521.44 832.352 3520.74 828.625L3505.44 828.625Z" fill="#FFFFFF"/></g></g></g></g></svg>